<svg xmlns="http://www.w3.org/2000/svg" viewBox="0 0 354 127"><defs><style>.cls-1{fill:#ffc502;}.cls-2{fill:#002b8e;}</style></defs><title>Asset 1</title><g id="Layer_2" data-name="Layer 2"><g id="Layer_1-2" data-name="Layer 1"><rect class="cls-1" width="354" height="127"/><path class="cls-2" d="M164.8,85.4l-1.2-.9L147.9,59.3,161,40.7H131a3.41,3.41,0,0,1,.5,1.3,4.88,4.88,0,0,1-.2,1.4L120.4,57.7V42.9l.3-1.3.3-.6H90.8l.5.6.3,1.2V84l-.3,1.3-.5.7H121l-.5-.7-.3-1.3V68.3h0v0l9.5,15a4.25,4.25,0,0,1,.2,2.1c0,.1-.2.3-.3.5h36.6Z"/><polygon class="cls-2" points="74.4 41.7 74.9 41 44.7 41 45 41.6 45.2 42.8 45.2 84.1 45.1 85.5 44.7 86.3 74.9 86.4 74.4 85.6 74.1 84.2 74.1 43 74.4 41.7"/><polygon class="cls-2" points="224.5 72.7 223 73 201.2 73 201.2 68.8 217.9 68.8 219.2 69.1 220.1 69.6 220.1 56.9 219.3 57.3 217.9 57.6 201.2 57.7 201.2 54 222.9 54 224.3 54.1 225.2 54.5 225.1 40.6 172.4 40.5 172.9 41.4 173.2 42.8 173.2 84.1 173 85.5 172.5 86.4 225.3 86.5 225.3 72.1 224.5 72.7"/><path class="cls-2" d="M307.9,84.7,290.1,42.9a4.18,4.18,0,0,1-.1-1.4,1.48,1.48,0,0,1,.5-.9H249.6a1.15,1.15,0,0,1,.5.9,4.18,4.18,0,0,1-.1,1.4L234.8,83.7s.1,0-.3.8a2.63,2.63,0,0,1-1.4,1.4h26a3,3,0,0,1-.5-1.6c0-.5.2-.5.2-.5l2.3-5.9h14.1l2.1,5.9a4.17,4.17,0,0,1,.2,1.1,3.94,3.94,0,0,1-.4,1.5l32.3-.1-.8-.7ZM264.6,68l3.5-8,3.6,8Z"/><path class="cls-2" d="M0,0V127H354V0ZM177,121.8c-95.4,0-172.8-26-172.8-57.9S81.6,6,177,6,349.8,31.9,349.8,63.9,272.4,121.8,177,121.8Z"/></g></g></svg>