<?xml version="1.0" encoding="utf-8"?>
<!-- Generator: Adobe Illustrator 21.1.0, SVG Export Plug-In . SVG Version: 6.00 Build 0)  -->
<svg version="1.1"
	 id="Layer_1" inkscape:version="0.48.2 r9819" sodipodi:docname="AJAX1.svg" xmlns:cc="http://creativecommons.org/ns#" xmlns:dc="http://purl.org/dc/elements/1.1/" xmlns:inkscape="http://www.inkscape.org/namespaces/inkscape" xmlns:rdf="http://www.w3.org/1999/02/22-rdf-syntax-ns#" xmlns:sodipodi="http://sodipodi.sourceforge.net/DTD/sodipodi-0.dtd" xmlns:svg="http://www.w3.org/2000/svg"
	 xmlns="http://www.w3.org/2000/svg" xmlns:xlink="http://www.w3.org/1999/xlink" x="0px" y="0px" viewBox="0 0 354 127"
	 style="enable-background:new 0 0 354 127;" xml:space="preserve">
<style type="text/css">
	.st0{fill:#FFC502;}
	.st1{fill:#002B8E;}
</style>
<sodipodi:namedview  bordercolor="#666666" borderopacity="1" fit-margin-bottom="0" fit-margin-left="0" fit-margin-right="0" fit-margin-top="0" gridtolerance="10" guidetolerance="10" id="namedview75" inkscape:current-layer="Layer_1" inkscape:cx="163.35055" inkscape:cy="33.454287" inkscape:pageopacity="0" inkscape:pageshadow="2" inkscape:window-height="1004" inkscape:window-maximized="1" inkscape:window-width="1280" inkscape:window-x="-8" inkscape:window-y="-8" inkscape:zoom="2.3967198" objecttolerance="10" pagecolor="#ffffff" showgrid="false">
	</sodipodi:namedview>
<g>
	<rect class="st0" width="354" height="127"/>
	<g>
		<path class="st1" d="M164.8,85.4l-1.2-0.9l-15.7-25.2L161,40.7h-30c0,0,0.5,0.8,0.5,1.3c0,0.8-0.2,1.4-0.2,1.4l-10.9,14.3V42.9
			l0.3-1.3L121,41H90.8l0.5,0.6l0.3,1.2V84l-0.3,1.3L90.8,86H121l-0.5-0.7l-0.3-1.3V68.3l0,0v-0.1v0.1l9.5,15c0,0,0.4,1,0.2,2.1
			c0,0.1-0.2,0.3-0.3,0.5h36.6L164.8,85.4z"/>
		<polygon class="st1" points="74.4,41.7 74.9,41 44.7,41 45,41.6 45.2,42.8 45.2,84.1 45.1,85.5 44.7,86.3 74.9,86.4 74.4,85.6 
			74.1,84.2 74.1,43 		"/>
		<polygon class="st1" points="224.5,72.7 223,73 201.2,73 201.2,68.8 217.9,68.8 219.2,69.1 220.1,69.6 220.1,56.9 219.3,57.3 
			217.9,57.6 201.2,57.7 201.2,54 222.9,54 224.3,54.1 225.2,54.5 225.1,40.6 172.4,40.5 172.9,41.4 173.2,42.8 173.2,84.1 
			173,85.5 172.5,86.4 225.3,86.5 225.3,72.1 		"/>
		<path class="st1" d="M307.9,84.7l-17.8-41.8c0,0-0.2-0.8-0.1-1.4c0.1-0.6,0.5-0.9,0.5-0.9h-40.9c0,0,0.4,0.2,0.5,0.9
			c0.1,0.6-0.1,1.4-0.1,1.4l-15.2,40.8c0,0,0.1,0-0.3,0.8c-0.5,1.1-1.4,1.4-1.4,1.4h26c0,0-0.5-0.7-0.5-1.6c0-0.5,0.2-0.5,0.2-0.5
			l2.3-5.9h14.1l2.1,5.9c0,0,0.2,0.6,0.2,1.1c0.1,0.4-0.4,1.5-0.4,1.5l32.3-0.1l-0.8-0.7L307.9,84.7z M264.6,68l3.5-8l3.6,8H264.6z"
			/>
	</g>
	<path class="st1" d="M0,0v127h354V0H0z M177,121.8c-95.4,0-172.8-26-172.8-57.9C4.2,31.9,81.6,6,177,6s172.8,25.9,172.8,57.9
		C349.8,95.8,272.4,121.8,177,121.8z"/>
</g>
</svg>
